# xmcd CD database file
#
# Track frame offsets:
#	150
#	47207
#	95312
#	126290
#	159060
#	195860
#	225472
#	263360
#	299492
#	325355
#
# Disc length: 4529 seconds
#
# Revision: 6
# Processed by: cddbd v1.5PL3 Copyright (c) Steve Scherf et al.
# Submitted via: CDex 1.40Release
#
DISCID=7b11af0a
DTITLE=Various Artist - NOW Jazz 3
DYEAR=1999
DGENRE=General Jazz
TTITLE0=THE SIDEWINDER
TTITLE1=BLUE TRAIN
TTITLE2=ALLIGATOR BOGALOO
TTITLE3=SONG FOR MY FATHER
TTITLE4=RECADE BOSSA NOVA
TTITLE5=SOFTLY AS IN A MORNING SUNRISE
TTITLE6=MANHA DE CARNAVAL
TTITLE7=BLUE BOSSA
TTITLE8=TUNE UP
TTITLE9='ROUND MIDNIGHT
EXTD=
EXTT0=
EXTT1=
EXTT2=
EXTT3=
EXTT4=
EXTT5=
EXTT6=
EXTT7=
EXTT8=
EXTT9=
PLAYORDER=
